# xmcd CD database file
#
# Track frame offsets:
#	150
#	2302
#	21097
#	40394
#	55961
#	74436
#	90774
#	103999
#	117862
#	135186
#	151536
#	169234
#	187980
#	202882
#	214646
#
# Disc length: 3081 seconds
#
# Revision: 3
# Processed by: cddbd v1.5.2PL0 Copyright (c) Steve Scherf et al.
# Submitted via: CDex 1.51
#
DISCID=b30c070f
DTITLE=Eddy De Pretto - Cure
DYEAR=2018
DGENRE=R&B
TTITLE0=Début
TTITLE1=Random
TTITLE2=Rue De Moscou
TTITLE3=Jimmy
TTITLE4=Beaulieue
TTITLE5=Quartier Des Lunes
TTITLE6=Desmurs
TTITLE7=Kid
TTITLE8=Normal
TTITLE9=Honey
TTITLE10=Genre
TTITLE11=Ego
TTITLE12=Mamere
TTITLE13=Fête DeTrop
TTITLE14=Musique Basse
EXTD=YEAR: 2018
EXTT0=
EXTT1=
EXTT2=
EXTT3=
EXTT4=
EXTT5=
EXTT6=
EXTT7=
EXTT8=
EXTT9=
EXTT10=
EXTT11=
EXTT12=
EXTT13=
EXTT14=
PLAYORDER=
